<svg width="167" height="165" viewBox="0 0 167 165" fill="none" xmlns="http://www.w3.org/2000/svg">
<path d="M71.2292 58.599C56.651 60.1771 43.6094 67.2813 33.2448 77.6407L6.96875 103.922C11.7083 104.37 16.7031 107.797 18.8229 109.677C21.9271 112.432 23.1823 113.547 24.1823 116.021C24.7813 117.521 25.2292 118.859 25.7708 119.906L27.224 118.453L54.1198 91.7917C54.1198 91.7917 52.3906 88.7136 52.5469 85.25C52.7865 79.9323 55.7083 71.7761 59.3021 67.6979C62.5 64.0729 66.349 61.125 69.7083 59.7084C71.8438 58.8177 72.9063 58.4115 71.2292 58.599Z" fill="#D36C18"/>
<path d="M123.766 159.708L120.833 156.88L116.339 159.167L113.125 151.953L109.036 157.531L107.974 156.755L113.406 149.339L116.979 157.365L121.078 155.281L124.677 158.76L123.766 159.708Z" fill="#3F60A0"/>
<path d="M73.8489 157.24L82.8698 161.979L81.1458 151.938L88.4427 144.828L78.3594 143.359L73.8489 134.229L69.3437 143.359L59.2604 144.828L66.5573 151.938L64.8333 161.979L73.8489 157.24ZM84.6198 164.391L73.8489 158.729L63.0833 164.391L65.1406 152.396L56.4271 143.906L68.4687 142.156L73.8489 131.245L79.2344 142.156L91.276 143.906L82.5625 152.396L84.6198 164.391Z" fill="#D36C18"/>
<path d="M12.7396 32.5104L17.7188 35.2135L17.4583 30.0365L12.7396 32.5104ZM19.151 37.4896L9.9375 32.4896L18.6719 27.9062L19.151 37.4896Z" fill="#3F60A0"/>
<path d="M139.469 11.0052C137.807 11.0052 136.453 12.3594 136.453 14.0208C136.453 15.6823 137.807 17.0313 139.469 17.0313C141.125 17.0313 142.479 15.6823 142.479 14.0208C142.479 12.3594 141.125 11.0052 139.469 11.0052ZM139.469 18.349C137.078 18.349 135.135 16.4063 135.135 14.0208C135.135 11.6302 137.078 9.6875 139.469 9.6875C141.854 9.6875 143.797 11.6302 143.797 14.0208C143.797 16.4063 141.854 18.349 139.469 18.349Z" fill="#3F60A0"/>
<path d="M10.5677 59.9167L9.64062 58.9844L37.7448 30.875C38.3437 30.276 38.3437 29.3021 37.7448 28.7031L32.7083 23.6667C31.9844 22.9427 31.7396 21.8854 32.0729 20.9167C32.4115 19.9479 33.25 19.2708 34.2708 19.1458L61.9427 15.8125C62.8125 15.7135 63.6667 16 64.2865 16.6198C64.9063 17.2396 65.2031 18.0938 65.099 18.9635L61.7604 46.6406C61.6354 47.6563 60.9583 48.5 59.9896 48.8333C59.0208 49.1667 57.9688 48.9271 57.2448 48.1979L52.2083 43.1615C51.6094 42.5625 50.6354 42.5625 50.0365 43.1615L35.4531 57.7448L34.5208 56.8125L49.1042 42.2292C50.2135 41.1198 52.026 41.1198 53.1406 42.2292L58.1771 47.2708C58.5469 47.6406 59.0625 47.7552 59.5573 47.5885C60.0521 47.4167 60.3854 47.0052 60.4531 46.4844L63.7865 18.8073C63.8438 18.3438 63.6875 17.8854 63.3542 17.5521C63.026 17.224 62.5677 17.0573 62.099 17.1198L34.4271 20.4583C33.9063 20.5208 33.4948 20.8542 33.3229 21.349C33.151 21.8438 33.2708 22.3594 33.6406 22.7292L38.6771 27.7708C39.7917 28.8854 39.7917 30.6927 38.6771 31.8073L10.5677 59.9167Z" fill="#D36C18"/>
<path d="M22.2812 153.448L21.3489 152.516L36.0104 137.859L36.9427 138.792L22.2812 153.448Z" fill="#3F60A0"/>
<path d="M40.8281 149.339L39.8958 148.406L47.2239 141.078L48.1562 142.01L40.8281 149.339Z" fill="#3F60A0"/>
<path d="M126.026 56.8542L125.094 55.9219L150.896 30.1146L151.828 31.0469L126.026 56.8542Z" fill="#D36C18"/>
<path d="M152.276 38.4688H150.958V30.5573H143.047V29.2396H152.276V38.4688Z" fill="#D36C18"/>
<path d="M139.932 151.047L139 150.115L156.349 132.766L157.281 133.698L139.932 151.047Z" fill="#D36C18"/>
<path d="M157.547 140H156.229V133.406H149.635V132.089H157.547V140Z" fill="#D36C18"/>
<mask id="mask0_33_211" style="mask-type:luminance" maskUnits="userSpaceOnUse" x="0" y="54" width="84" height="68">
<path d="M0.953125 54H83.3333V122H0.953125V54Z" fill="white"/>
</mask>
<g mask="url(#mask0_33_211)">
<path d="M24.8333 120.698C23.9687 118.438 22.3698 114.229 18.7031 110.823C14.6771 107.073 9.18227 104.849 2.36977 104.208L0.973938 104.078L30.5364 74.5156C41.0052 64.0521 54.8281 57.4167 69.4583 55.8281C82.2552 54.4427 82.5 55.0521 82.7604 55.6979L81.5364 56.1875C81.5989 56.3386 81.7031 56.4115 81.7396 56.4271C81.4791 56.3125 79.8437 56.0313 69.6041 57.1406C55.2656 58.6927 41.7239 65.1927 31.4687 75.4479L3.86977 103.052C10.3437 103.88 15.6354 106.167 19.5989 109.854C23.4896 113.474 25.1666 117.865 26.0625 120.224L24.8333 120.698Z" fill="#3F60A0"/>
</g>
<path d="M51.5937 135.797C49.8229 135.797 48.1666 135.109 46.9271 133.87C44.3541 131.297 44.3541 127.109 46.9271 124.536L64.5729 106.911L64.5885 98.4636H65.9062L65.8906 107.458L47.8594 125.469C45.7969 127.526 45.7969 130.88 47.8594 132.938C49.9166 134.995 53.2656 134.995 55.3281 132.938L74.8906 113.396C74.9062 113.385 76.7448 111.865 76.4635 109.677L76.4583 109.589L76.4896 92.3542H77.8125L77.776 109.552C78.1094 112.313 76.0469 114.151 75.75 114.401L56.2604 133.87C55.0156 135.109 53.3594 135.797 51.5937 135.797Z" fill="#3F60A0"/>
<path d="M24.5 137.365C22.7031 137.365 20.9114 136.688 19.5416 135.328C18.2291 134.036 17.5052 132.276 17.5052 130.38C17.5052 128.484 18.2291 126.729 19.5416 125.432L53.6562 91.3229L54.5833 92.2552L20.4687 126.37C19.4062 127.417 18.8229 128.844 18.8229 130.38C18.8229 131.922 19.4062 133.344 20.4687 134.391C22.6927 136.599 26.3021 136.599 28.5104 134.396L68.1979 94.7084L69.1302 95.6406L29.4479 135.323C28.0833 136.688 26.2916 137.365 24.5 137.365Z" fill="#3F60A0"/>
<path d="M121.573 38.5625L121.099 37.3333C121.979 36.9948 123.12 35.9167 123.396 35.3021C124.245 33.4583 123.531 31.3333 121.776 30.4635C120.917 30.0365 119.937 29.974 119.026 30.2812C118.115 30.5885 117.38 31.2344 116.953 32.0937L115.771 31.5104C116.354 30.3281 117.359 29.4531 118.604 29.0312C119.849 28.6094 121.182 28.6979 122.359 29.2812C124.76 30.4687 125.745 33.3542 124.599 35.8542C124.146 36.8333 122.708 38.125 121.573 38.5625Z" fill="#3F60A0"/>
<path d="M94.6354 68.0052L93.7031 67.0729L120.859 39.9115C121.063 39.7084 121.099 39.3438 120.964 38.8386C120.391 36.7032 117.073 33.3907 114.953 32.8282C114.458 32.6979 114.104 32.7344 113.906 32.9375L101.25 45.5729L100.318 44.6407L112.969 32.0052C113.349 31.6198 114.063 31.2292 115.286 31.5521C117.896 32.2448 121.531 35.875 122.24 38.4948C122.573 39.7344 122.182 40.4584 121.792 40.849L94.6354 68.0052Z" fill="#3F60A0"/>
<path d="M96.5416 56.0417C93.9791 56.0417 92.0469 54.7917 91.4427 54.349L92.2239 53.2865C92.8229 53.7292 95 55.1302 97.7344 54.6146C98.5781 54.4531 99.3854 54.1354 100.13 53.6615C100.646 53.3334 100.958 52.724 100.937 52.0781C100.927 51.7865 100.922 51.5052 100.917 51.2448C100.885 49.9479 100.865 48.9219 100.5 47.1406C99.6875 43.1719 98.3802 40.1146 97.4323 38.25L98.6041 37.6511C100.026 40.4323 101.125 43.6198 101.792 46.875C102.177 48.7761 102.203 49.9063 102.234 51.2136C102.24 51.474 102.245 51.7448 102.255 52.0365C102.292 53.1459 101.745 54.1979 100.839 54.7761C99.9531 55.3386 98.9896 55.7188 97.9791 55.9115C97.4844 56.0052 97 56.0417 96.5416 56.0417Z" fill="#3F60A0"/>
<path d="M82.3386 56.5156L81.4948 55.5C81.9427 55.1302 82.3333 54.7031 82.6563 54.2344C83.8333 52.5312 83.8594 50.7187 83.7656 49.75C81.9688 48.7135 80.9792 46.9167 81.3281 45.2708C81.3854 45.0156 81.7188 43.7083 82.9063 43.1198C84.0729 42.5469 85.5521 42.8646 86.7865 43.8489L86.7813 43.6614C86.7292 42.276 87.625 41.2083 89.4531 40.4896L89.5417 40.4531C90.6979 39.9427 91.6198 40.0417 92.2761 40.0208C93.9583 39.9687 95.7552 38.901 97.6146 36.8594C99.0886 35.125 98.3438 32.401 97.8646 31.2135C96.5469 31.9531 95.1667 32.4427 93.75 32.6667C92.0261 32.9375 90.8177 32.7135 89.7552 32.5104C88.6563 32.3021 87.7083 32.125 86.2708 32.4531C84.0573 32.9479 82.3802 33.9635 81.2761 35.4635C80.0886 37.0677 79.4479 39.0469 79.3854 39.5625C78.9896 43.125 80.0729 45.4114 80.5313 46.3854L79.3438 46.9479C78.5469 45.276 77.6875 42.9062 78.0781 39.4167C78.1771 38.5312 78.9948 36.3385 80.2136 34.6771C81.5104 32.9167 83.4479 31.7344 85.9792 31.1667C87.6875 30.7812 88.8646 31 90 31.2187C91.0521 31.4114 92.0417 31.5989 93.5417 31.3646C95.0104 31.1302 96.4375 30.5781 97.7865 29.7292C98.0781 29.5417 98.4583 29.6146 98.6667 29.8906C99.0313 30.3802 101.094 34.8073 98.6042 37.7344C96.4792 40.0625 94.3698 41.2708 92.3177 41.3385C91.7083 41.3594 90.9636 41.2656 90.0781 41.6614L89.9375 41.7187C88.6719 42.2187 88.0677 42.8385 88.099 43.6146L88.1719 45.5833C88.1823 45.8802 87.9948 46.1458 87.7188 46.2396C87.4323 46.3281 87.1302 46.2239 86.9636 45.9739C85.9167 44.401 84.349 43.8802 83.4896 44.3021C82.8229 44.6354 82.625 45.5104 82.6198 45.5469C82.375 46.6875 83.2448 48.0312 84.6875 48.7448C84.8958 48.8489 85.0365 49.0573 85.0521 49.2917L85.0677 49.5573C85.1927 50.6667 85.1927 52.8854 83.7396 54.9844C83.349 55.5521 82.875 56.0677 82.3386 56.5156Z" fill="#3F60A0"/>
<path d="M58.2344 96.2344C57.5052 96.2344 56.7656 96.0729 56.0729 95.7292C54.8958 95.1458 54.0156 94.1406 53.5937 92.8958C53.1719 91.6511 53.2604 90.3177 53.8437 89.1406L55.026 89.724C54.599 90.5833 54.5312 91.5625 54.8385 92.474C55.151 93.3854 55.7917 94.1198 56.6562 94.5469C58.4271 95.4219 60.5885 94.6927 61.4792 92.9115C61.9375 91.9948 62.2187 90.2708 61.9115 89.3333L63.1667 88.9271C63.599 90.2552 63.2396 92.3386 62.6562 93.5052C61.7969 95.2292 60.0469 96.2344 58.2344 96.2344Z" fill="#3F60A0"/>
<path d="M58.5417 90.4063C55.6563 90.4063 51.625 89.7344 51.5938 87.8073C51.5261 84.1563 52.1563 74.7865 59.349 66.625C67.0417 57.9063 78.9531 55.5313 82.8958 55.349L82.9531 56.6667C79.1719 56.8386 67.7292 59.1198 60.3386 67.5C53.4479 75.3125 52.849 84.2865 52.9115 87.7865C53.0052 88.375 56.3854 89.3438 59.9219 89.0313C61.9063 88.8542 63.2344 88.2813 63.2188 87.6042C63.1823 85.3125 63.5729 79.4219 68.0729 74.3177C73.1354 68.5781 79.9271 67.8386 81.8906 67.75L81.9479 69.0677C80.1198 69.1511 73.7813 69.8386 69.0625 75.1927C64.8646 79.9479 64.5 85.4427 64.5365 87.5781C64.5677 89.3073 62.5 90.3386 58.8646 90.4063C58.7552 90.4063 58.6511 90.4063 58.5417 90.4063Z" fill="#3F60A0"/>
<path d="M79.0313 94.1563L76.5886 92.6406L77.2813 91.5156L78.724 92.4115C78.9584 92.1146 79.1979 91.8229 79.4531 91.5417C80.7813 90.1146 84.2917 86.2031 88.2969 80.4584C90.974 76.599 92.3177 74.6615 93.0625 72.5365C94.4167 68.6406 93.4948 64.5834 92.8854 61.9011C92.8386 61.6875 92.7917 61.4792 92.7448 61.2813C91.6927 61.4323 90.2709 61.4531 88.2709 60.8959C85.9531 60.25 83.7969 58.6979 81.8594 56.2709L82.8906 55.4479C84.6511 57.6511 86.5781 59.0573 88.625 59.625C90.7761 60.224 92.1042 60.0886 93.1198 59.875L93.7761 59.7396L93.9063 60.3906C93.9792 60.7552 94.0729 61.1667 94.1719 61.6094C94.8177 64.4375 95.7865 68.7136 94.3073 72.9688C93.5 75.2656 92.125 77.25 89.3802 81.2136C85.3281 87.0261 81.7656 90.9948 80.4219 92.4323C80.0729 92.8177 79.7292 93.2604 79.3959 93.6875L79.0313 94.1563Z" fill="#3F60A0"/>
<path d="M76.8698 92.8073C75.8698 92.3385 74.5417 91.6198 73.2292 90.8437C71.5781 89.8698 70.0313 88.8073 68.5 87.5937C66.8385 86.2917 65.2917 84.8646 63.9062 83.3542L64.8802 82.4635C66.2135 83.9219 67.7083 85.2969 69.3177 86.5573C70.8021 87.7344 72.3021 88.7656 73.8958 89.7083C75.1771 90.4635 76.4687 91.1614 77.4323 91.6146L76.8698 92.8073Z" fill="#3F60A0"/>
<path d="M92.6354 60.7292C91.7136 57.974 93.0677 54.724 93.125 54.5886L94.3386 55.1042C94.3282 55.1302 93.125 58.0313 93.8802 60.3125L92.6354 60.7292Z" fill="#3F60A0"/>
<path d="M106.953 105.833C106.953 107.688 107.667 109.422 108.99 110.719C111.589 113.339 116.141 113.339 118.76 110.719C120.057 109.422 120.797 107.688 120.797 105.833C120.797 104 120.057 102.245 118.76 100.948C117.464 99.6511 115.708 98.9115 113.875 98.9115C112.021 98.9115 110.292 99.6511 108.99 100.948C107.667 102.245 106.953 104 106.953 105.833Z" fill="#D36C18"/>
<path d="M101.87 105.833C101.87 102.625 103.115 99.625 105.38 97.3594C107.641 95.0677 110.672 93.8229 113.875 93.8229C117.083 93.8229 120.083 95.0677 122.349 97.3594C124.641 99.625 125.885 102.625 125.885 105.833C125.885 109.036 124.641 112.063 122.349 114.328C120.083 116.594 117.083 117.844 113.875 117.844C110.672 117.844 107.641 116.594 105.38 114.328C103.115 112.063 101.87 109.036 101.87 105.833ZM98.8125 120.896C102.833 124.943 108.177 127.151 113.875 127.151C119.578 127.151 124.917 124.943 128.938 120.896C137.26 112.599 137.26 99.0886 128.938 90.7708C124.917 86.75 119.578 84.5365 113.875 84.5365C108.177 84.5365 102.833 86.75 98.8125 90.7708C90.4948 99.0886 90.4948 112.599 98.8125 120.896Z" fill="#D36C18"/>
<path d="M113.906 134.573C98.0312 134.573 85.1146 121.656 85.1146 105.776C85.1146 89.901 98.0312 76.9844 113.906 76.9844C119.677 76.9844 125.245 78.6875 130.005 81.901L129.271 82.9948C124.724 79.9271 119.417 78.3021 113.906 78.3021C98.7604 78.3021 86.4375 90.6302 86.4375 105.776C86.4375 120.927 98.7604 133.25 113.906 133.25C129.057 133.25 141.385 120.927 141.385 105.776C141.385 100.406 139.833 95.2031 136.901 90.7292L138 90.0052C141.078 94.6927 142.703 100.146 142.703 105.776C142.703 121.656 129.786 134.573 113.906 134.573Z" fill="#D36C18"/>
<path d="M143.26 75.7031L156.427 62.5313L155.333 52.6615L142.167 65.8229L143.26 75.7031Z" fill="#D36C18"/>
<mask id="mask1_33_211" style="mask-type:luminance" maskUnits="userSpaceOnUse" x="142" y="62" width="25" height="16">
<path d="M142 62H166.688V78H142V62Z" fill="white"/>
</mask>
<g mask="url(#mask1_33_211)">
<path d="M143.26 75.7031L156.427 62.5312L166.302 63.6302L153.135 76.7969L143.26 75.7031Z" fill="#D36C18"/>
</g>
<path d="M114.927 104.969L113.995 104.036L155.964 62.0677L156.896 63L114.927 104.969Z" fill="#3F60A0"/>
<path d="M116.646 69.2969C116 69.25 115.344 69.2187 114.703 69.2031L114.734 67.8854C115.396 67.901 116.073 67.9323 116.745 67.9844L116.646 69.2969ZM110.812 69.3229L110.708 68.0052C111.375 67.9531 112.052 67.9167 112.719 67.8906L112.76 69.2135C112.115 69.2344 111.458 69.2708 110.812 69.3229ZM120.5 69.7917C119.87 69.6771 119.219 69.5781 118.578 69.4948L118.745 68.1875C119.411 68.2708 120.083 68.375 120.734 68.4948L120.5 69.7917ZM106.964 69.8489L106.719 68.5521C107.38 68.4271 108.047 68.3177 108.703 68.2239L108.885 69.5312C108.25 69.6198 107.604 69.7239 106.964 69.8489ZM124.276 70.6927C123.656 70.5052 123.021 70.3385 122.401 70.1927L122.703 68.9114C123.349 69.0625 124.005 69.2344 124.656 69.4271L124.276 70.6927ZM127.937 71.9948C127.344 71.7448 126.734 71.5104 126.13 71.2969L126.568 70.0521C127.198 70.276 127.828 70.5208 128.443 70.776L127.937 71.9948ZM131.432 73.6719C130.865 73.3594 130.281 73.0625 129.708 72.7864L130.281 71.5989C130.875 71.8854 131.479 72.1927 132.068 72.5156L131.432 73.6719ZM134.734 75.7135C134.203 75.3437 133.656 74.9896 133.109 74.651L133.807 73.526C134.37 73.8802 134.937 74.25 135.49 74.6302L134.734 75.7135ZM137.802 78.0937C137.318 77.6771 136.812 77.2604 136.302 76.8646L137.109 75.8229C137.641 76.2344 138.161 76.6667 138.667 77.0989L137.802 78.0937ZM140.604 80.7917C140.161 80.3177 139.703 79.8542 139.24 79.4062L140.151 78.4531C140.635 78.9167 141.109 79.401 141.568 79.8906L140.604 80.7917ZM143.109 83.7656C142.719 83.25 142.307 82.7344 141.896 82.2448L142.906 81.3958C143.333 81.9062 143.755 82.4323 144.161 82.9739L143.109 83.7656ZM145.286 86.9896C144.953 86.4375 144.599 85.8854 144.24 85.3489L145.333 84.6094C145.703 85.1667 146.068 85.7396 146.417 86.3125L145.286 86.9896ZM147.104 90.4271C146.833 89.8437 146.547 89.2604 146.24 88.6875L147.406 88.0677C147.719 88.6614 148.021 89.2708 148.302 89.875L147.104 90.4271ZM148.552 94.0417C148.344 93.4323 148.115 92.8177 147.875 92.2187L149.104 91.7292C149.349 92.3489 149.583 92.9844 149.802 93.6198L148.552 94.0417ZM149.599 97.7864C149.458 97.151 149.297 96.5156 149.125 95.901L150.396 95.5469C150.573 96.1823 150.74 96.8437 150.885 97.5L149.599 97.7864ZM150.245 101.62C150.172 100.974 150.078 100.328 149.969 99.6927L151.271 99.4739C151.385 100.13 151.479 100.802 151.552 101.469L150.245 101.62ZM150.479 105.495C150.469 104.849 150.448 104.193 150.411 103.552L151.729 103.474C151.766 104.135 151.792 104.812 151.797 105.484L150.479 105.495ZM151.62 109.505L150.307 109.38C150.37 108.74 150.417 108.083 150.443 107.443L151.76 107.5C151.729 108.167 151.682 108.844 151.62 109.505ZM151.016 113.49L149.724 113.224C149.854 112.594 149.969 111.948 150.068 111.307L151.37 111.505C151.271 112.172 151.151 112.839 151.016 113.49ZM149.995 117.38L148.74 116.979C148.937 116.37 149.12 115.74 149.281 115.115L150.557 115.448C150.385 116.094 150.198 116.745 149.995 117.38ZM148.562 121.141L147.359 120.609C147.62 120.016 147.87 119.411 148.094 118.812L149.328 119.281C149.094 119.906 148.833 120.531 148.562 121.141ZM79.5833 122.005C79.2969 121.396 79.0208 120.776 78.7708 120.156L79.9896 119.656C80.2344 120.255 80.4948 120.854 80.776 121.437L79.5833 122.005ZM146.745 124.729L145.599 124.068C145.922 123.51 146.234 122.932 146.526 122.359L147.703 122.958C147.396 123.552 147.073 124.146 146.745 124.729ZM81.5 125.547C81.1458 124.974 80.8125 124.391 80.4948 123.802L81.651 123.172C81.9583 123.74 82.2864 124.307 82.625 124.859L81.5 125.547ZM144.552 128.099L143.484 127.323C143.87 126.797 144.24 126.26 144.583 125.724L145.693 126.437C145.333 126.995 144.948 127.552 144.552 128.099ZM83.776 128.87C83.375 128.344 82.9739 127.797 82.5937 127.24L83.6823 126.49C84.0469 127.031 84.4323 127.557 84.8229 128.062L83.776 128.87ZM142.01 131.219L141.031 130.339C141.469 129.859 141.891 129.365 142.302 128.859L143.323 129.693C142.901 130.208 142.458 130.724 142.01 131.219ZM86.3958 131.927C85.9375 131.448 85.4844 130.943 85.0469 130.432L86.0469 129.578C86.4687 130.068 86.9062 130.552 87.3489 131.016L86.3958 131.927ZM139.156 134.062L138.281 133.078C138.755 132.651 139.234 132.198 139.693 131.745L140.625 132.677C140.146 133.151 139.656 133.615 139.156 134.062ZM89.3177 134.693C88.8073 134.26 88.3021 133.807 87.8229 133.349L88.7291 132.391C89.1927 132.833 89.6823 133.271 90.1719 133.693L89.3177 134.693ZM136.021 136.583L135.25 135.516C135.776 135.135 136.297 134.74 136.797 134.339L137.625 135.365C137.104 135.781 136.568 136.193 136.021 136.583ZM92.5208 137.135C91.9687 136.76 91.4219 136.365 90.8854 135.958L91.6875 134.911C92.2031 135.302 92.7291 135.687 93.2656 136.047L92.5208 137.135ZM132.63 138.766L131.979 137.62C132.536 137.302 133.094 136.964 133.641 136.609L134.354 137.719C133.786 138.083 133.208 138.432 132.63 138.766ZM95.9635 139.229C95.375 138.917 94.7864 138.578 94.2135 138.229L94.8958 137.104C95.4531 137.437 96.0208 137.766 96.5833 138.068L95.9635 139.229ZM129.026 140.573L128.495 139.365C129.083 139.109 129.677 138.828 130.26 138.536L130.849 139.719C130.245 140.021 129.63 140.307 129.026 140.573ZM99.6041 140.943C98.9844 140.687 98.3646 140.417 97.7604 140.135L98.3177 138.937C98.901 139.214 99.5 139.474 100.099 139.719L99.6041 140.943ZM125.245 141.984L124.849 140.724C125.464 140.531 126.083 140.323 126.693 140.094L127.151 141.328C126.521 141.562 125.88 141.786 125.245 141.984ZM103.406 142.255C102.766 142.073 102.12 141.87 101.484 141.646L101.917 140.401C102.531 140.615 103.151 140.812 103.766 140.984L103.406 142.255ZM121.344 142.984L121.089 141.693C121.714 141.568 122.349 141.422 122.979 141.26L123.307 142.536C122.656 142.703 121.995 142.854 121.344 142.984ZM107.328 143.156C106.677 143.042 106.01 142.906 105.354 142.755L105.651 141.469C106.281 141.615 106.922 141.745 107.557 141.854L107.328 143.156ZM117.359 143.562L117.24 142.245C117.885 142.187 118.531 142.115 119.172 142.021L119.359 143.323C118.698 143.422 118.026 143.5 117.359 143.562ZM111.328 143.635C110.656 143.589 109.984 143.526 109.323 143.448L109.479 142.141C110.115 142.214 110.766 142.276 111.411 142.318L111.328 143.635ZM113.786 143.719C113.635 143.719 113.49 143.719 113.339 143.719L113.359 142.396C113.526 142.396 113.703 142.401 113.875 142.401C114.354 142.401 114.828 142.391 115.302 142.375L115.349 143.693C114.833 143.714 114.312 143.719 113.786 143.719Z" fill="#3F60A0"/>
<mask id="mask2_33_211" style="mask-type:luminance" maskUnits="userSpaceOnUse" x="78" y="0" width="35" height="29">
<path d="M78 0.00518799H112.667V28.6666H78V0.00518799Z" fill="white"/>
</mask>
<g mask="url(#mask2_33_211)">
<path d="M82.8177 28.125C79.9011 25.0312 78.2917 20.9844 78.2917 16.7292C78.2917 7.5677 85.7448 0.119781 94.9063 0.119781C104.063 0.119781 111.516 7.5677 111.516 16.7292C111.516 20.7292 110.073 24.5937 107.458 27.6094L106.464 26.7448C108.87 23.9687 110.198 20.4114 110.198 16.7292C110.198 8.29686 103.333 1.43749 94.9063 1.43749C86.474 1.43749 79.6094 8.29686 79.6094 16.7292C79.6094 20.6458 81.0886 24.375 83.7761 27.2239L82.8177 28.125Z" fill="#D36C18"/>
</g>
<path d="M94.1042 22.0209L86.5156 14.4323L87.4479 13.5L94.1042 20.1563L102.359 11.9011L103.292 12.8386L94.1042 22.0209Z" fill="#D36C18"/>
</svg>
